<?xml version="1.0" encoding="utf-8"?>
<!-- Svg Vector Icons : http://www.onlinewebfonts.com/icon -->
<!DOCTYPE svg PUBLIC "-//W3C//DTD SVG 1.1//EN" "http://www.w3.org/Graphics/SVG/1.1/DTD/svg11.dtd">
<svg version="1.1" xmlns="http://www.w3.org/2000/svg" xmlns:xlink="http://www.w3.org/1999/xlink" x="0px" y="0px" viewBox="0 0 1000 1000" enable-background="new 0 0 1000 1000" xml:space="preserve">
<metadata> Svg Vector Icons : http://www.onlinewebfonts.com/icon </metadata>
<g><path d="M892,892H108c-54.1,0-98-43.9-98-98V206c0-54.1,43.9-98,98-98h784c54.1,0,98,43.9,98,98v588C990,848.1,946.1,892,892,892z M941,255c0-54.1-43.9-98-98-98H157c-54.1,0-98,43.9-98,98v490c0,54.1,43.9,98,98,98h686c54.1,0,98-43.9,98-98V255z M753.7,703.9l-89-154.7l-45.2,57.8v97h-68.9V359h68.9v149.5h1.4L735.1,359h75.9L705.8,494.6l124,209.3H753.7z M354.7,581.3h-46.2v122.6h-69V359h113.3c76.4,0,135.1,26.6,135.1,108.1C487.9,545.9,428.8,581.3,354.7,581.3z M347.7,413.5h-39.2v113.2H350c47.5,0,70.4-20,70.4-59.6C420.4,427,395.2,413.5,347.7,413.5z"/></g>
</svg>